<svg width="164" height="35" viewBox="0 0 164 35" fill="none" xmlns="http://www.w3.org/2000/svg">
<path d="M22.5095 34.3266C18.783 34.3266 15.0189 34.3266 11.2924 34.3266C7.5659 34.3266 3.76413 34.3266 0 34.3266V0.755859H10.7278V9.69742C12.6851 9.69742 14.6801 9.69742 16.6374 9.69742C18.5948 9.69742 20.5898 9.69742 22.5471 9.69742C24.1657 9.69742 25.1444 10.2163 25.1444 10.2163C25.5208 10.376 25.8972 10.5756 26.1983 10.8151C26.4995 11.0546 26.8382 11.334 27.1017 11.6534C27.6287 12.2921 28.0428 13.0904 28.3439 14.0085C28.4192 14.4476 28.5321 14.8867 28.6074 15.4056C28.6827 15.9246 28.7203 16.4435 28.7203 17.0023V27.1814C28.7203 27.7801 28.6827 28.339 28.6074 28.818C28.5321 29.297 28.4192 29.776 28.2686 30.1752C28.0804 30.6941 27.8922 31.1731 27.6287 31.6122C27.3652 32.0513 27.1017 32.3706 26.7629 32.6501C26.4995 32.9694 26.1607 33.2089 25.8219 33.4484C25.4831 33.6879 25.1444 33.8077 24.8056 33.9274C24.8056 33.9274 23.6387 34.3266 22.5095 34.3266ZM16.6751 14.5275H12.0076C11.8194 14.5275 11.6688 14.5674 11.5182 14.6871C11.3677 14.8069 11.2171 14.9266 11.1042 15.0863C10.916 15.246 10.803 15.4056 10.7278 15.6052C10.6525 15.8048 10.6148 16.0044 10.6148 16.204V27.9797C10.6148 28.1793 10.6525 28.339 10.7654 28.4986C10.8783 28.6583 10.9536 28.818 11.0665 28.9377C11.2171 29.0974 11.3677 29.2172 11.5182 29.297C11.6688 29.3768 11.857 29.4966 12.0452 29.4966H16.7127C16.8633 29.4966 17.0139 29.4567 17.1644 29.3369C17.315 29.2172 17.4656 29.1373 17.5785 28.9776C17.6914 28.818 17.8043 28.6583 17.8796 28.4986C17.9549 28.339 17.9925 28.1394 17.9925 27.9797V16.1641C17.9925 16.0044 17.9549 15.8447 17.8796 15.6451C17.8043 15.4456 17.729 15.246 17.5785 15.1262C17.4279 15.0065 17.315 14.8468 17.1644 14.727C17.0139 14.6073 16.8633 14.5275 16.6751 14.5275Z" fill="#021112"/>
<path d="M32.0706 9.69727H41.8196V11.4936C41.9326 11.2541 42.0831 11.0145 42.2337 10.775C42.3843 10.5355 42.5725 10.3759 42.723 10.2162C42.9112 10.0565 43.1371 9.93677 43.3253 9.85694C43.5135 9.7771 43.7393 9.69727 44.0028 9.69727H54.3542C54.8435 9.69727 55.2952 9.7771 55.6716 9.97669C56.048 10.1763 56.3492 10.4158 56.575 10.6952C56.7632 10.8948 56.9514 11.1343 57.0644 11.3738C57.1773 11.6133 57.2902 11.8129 57.3655 12.0125C57.4408 12.2121 57.4784 12.3318 57.5161 12.4117C57.5537 12.4915 57.5161 12.4915 57.4784 12.3717C57.5537 12.0524 57.629 11.7331 57.7043 11.4536C57.7795 11.1742 57.9301 10.8948 58.0807 10.6553C58.2312 10.3359 58.4194 10.0964 58.6453 9.93677C58.8711 9.7771 59.1723 9.69727 59.4734 9.69727H67.9803C68.5826 9.69727 69.1472 9.7771 69.6365 9.89685C70.1259 10.0166 70.5399 10.2162 70.954 10.4956C71.368 10.775 71.6692 11.0545 71.9703 11.3738C72.2714 11.6931 72.4973 12.0923 72.7231 12.4915C72.9113 12.8508 73.0619 13.21 73.1748 13.6092C73.2877 14.0084 73.4007 14.4076 73.476 14.8067C73.5512 15.3257 73.6265 15.8446 73.6642 16.3635C73.7018 16.8824 73.7394 17.3615 73.7394 17.8405V34.2866H63.9904V15.8845C63.9904 15.6849 63.9527 15.4853 63.8774 15.3257C63.8021 15.166 63.7269 15.0462 63.6516 14.8866C63.5387 14.8067 63.4257 14.7269 63.2752 14.6471C63.1246 14.5672 63.0117 14.5672 62.8611 14.5672H58.7959C58.6453 14.5672 58.5324 14.6071 58.3818 14.687C58.2312 14.7668 58.156 14.8466 58.0807 14.9265C58.0054 15.0462 57.9301 15.2059 57.8548 15.3656C57.7795 15.5252 57.7795 15.645 57.7795 15.8047V34.2866H47.9928V15.9643C47.9928 15.8047 47.9552 15.645 47.9175 15.4454C47.8799 15.2458 47.8046 15.0862 47.7293 14.9664C47.6164 14.8067 47.4658 14.687 47.3153 14.6071C47.1647 14.5273 46.9389 14.4475 46.713 14.4475H42.836C42.6854 14.4475 42.5348 14.4874 42.4219 14.6071C42.309 14.7269 42.1961 14.8466 42.0831 15.0063C41.9702 15.166 41.9326 15.3257 41.8573 15.4853C41.782 15.645 41.782 15.8047 41.782 15.9643V34.2866H32.0706V9.69727Z" fill="#021112"/>
<path d="M105.809 18.1585V34.2453H96.3615L95.684 31.6107C95.6463 31.8103 95.6087 31.97 95.5334 32.0897C95.4581 32.2095 95.3828 32.3692 95.3452 32.4889C95.2699 32.6885 95.1946 32.8482 95.0441 33.0078C94.8935 33.1675 94.8182 33.2873 94.7053 33.407C94.3665 33.6864 94.0277 33.9259 93.689 34.0457C93.3126 34.1655 92.8985 34.2453 92.4845 34.2453H82.6601C82.1331 34.2453 81.6438 34.2054 81.2297 34.0856C80.8157 33.9659 80.4016 33.8461 80.0628 33.6465C79.6864 33.4469 79.3477 33.2074 79.0842 32.928C78.8207 32.6486 78.5572 32.2893 78.369 31.9301C78.1431 31.5309 77.9549 31.0519 77.8044 30.5329C77.6538 30.014 77.5785 29.4951 77.5032 29.0161C77.4279 28.4971 77.3903 27.9383 77.3903 27.4194C77.3903 26.9004 77.3527 26.3815 77.3527 25.9025C77.3527 25.4634 77.3527 24.9844 77.3527 24.5054C77.3527 24.0264 77.3903 23.5074 77.4279 22.9885C77.4656 22.4696 77.5785 21.9906 77.6538 21.5116C77.7291 21.0325 77.8796 20.5934 78.0678 20.1943C78.2561 19.7552 78.5195 19.356 78.8583 18.9967C79.1971 18.6375 79.5359 18.3581 79.9876 18.1186C80.3263 17.919 80.7404 17.7992 81.1921 17.6795C81.6438 17.5597 82.1331 17.5198 82.6601 17.5198H93.6137C93.8019 17.5198 94.0278 17.44 94.216 17.3202C94.4042 17.2004 94.63 17.0408 94.7806 16.8013C94.8935 16.6815 95.0064 16.5218 95.0817 16.3223C95.157 16.1227 95.1946 15.963 95.1946 15.8033C95.1946 15.6037 95.157 15.4441 95.0441 15.2445C94.9311 15.0449 94.8559 14.8852 94.7053 14.7655C94.5547 14.6058 94.4042 14.486 94.216 14.4062C94.0278 14.3264 93.8772 14.2465 93.689 14.2465H79.1218V9.57617H99.4105C100.013 9.57617 100.54 9.61609 101.029 9.73584C101.518 9.8556 101.97 10.0153 102.384 10.2149C102.873 10.4144 103.25 10.7338 103.589 11.0531C103.927 11.3725 104.229 11.7716 104.454 12.1708C104.68 12.5301 104.906 12.9293 105.057 13.3684C105.207 13.8074 105.358 14.2066 105.433 14.6457C105.584 15.2445 105.659 15.8432 105.734 16.442C105.809 17.0408 105.809 17.6395 105.809 18.1585ZM95.157 22.4297H89.9625C89.7366 22.4297 89.5108 22.5095 89.2849 22.6292C89.0591 22.749 88.8709 22.9087 88.6827 23.1083C88.5321 23.3078 88.4192 23.5074 88.2686 23.7469C88.1181 23.9864 88.0804 24.1461 88.0804 24.3856V27.8984C88.0804 28.0581 88.1181 28.2177 88.1934 28.3774C88.2686 28.5371 88.3439 28.6967 88.4568 28.8564C88.6074 29.0161 88.7956 29.1358 88.9838 29.2955C89.172 29.4552 89.3979 29.4951 89.5484 29.4951H93.8019C93.9525 29.4951 94.103 29.4552 94.2912 29.3354C94.4794 29.2157 94.63 29.0959 94.7806 28.9362C94.8935 28.8165 95.0064 28.6568 95.0817 28.4971C95.157 28.3375 95.1946 28.1778 95.1946 28.0181V22.4297H95.157Z" fill="#021112"/>
<path d="M120.453 34.3265H109.688V9.69727H120.453V11.8927C120.603 11.6532 120.792 11.4137 121.018 11.1742C121.093 11.0545 121.206 10.9347 121.356 10.815C121.507 10.6952 121.62 10.6154 121.733 10.5755C121.921 10.4557 122.071 10.3359 122.26 10.2162C122.448 10.0964 122.598 10.0166 122.787 9.97669C122.975 9.89685 123.201 9.85694 123.389 9.81702C123.577 9.7771 123.765 9.73718 123.954 9.73718H130.353V16.5631H124.706C124.142 16.5631 123.615 16.6429 123.163 16.7627C122.674 16.8824 122.222 17.0421 121.883 17.2816C121.695 17.3615 121.507 17.4812 121.356 17.6409C121.206 17.8006 121.093 17.9602 120.942 18.1199C120.754 18.3195 120.641 18.5191 120.566 18.7586C120.491 18.9981 120.453 19.2376 120.453 19.517V34.3265Z" fill="#021112"/>
<path d="M144.127 18.2402L153.349 9.7377H160.125L153.763 15.6455L163.663 34.3669H150.903L145.859 22.8307L144.09 24.6669V34.4467L133.4 34.4068V0.875977H144.09V18.2402H144.127Z" fill="#021112"/>
</svg>
