<svg width="103" height="104" viewBox="0 0 103 104" fill="none" xmlns="http://www.w3.org/2000/svg">
<path d="M82.61 47.278C82.6031 47.278 82.6031 47.278 82.61 47.278L55.9872 20.4011C54.8542 19.257 53.3504 18.626 51.7435 18.626C50.1367 18.626 48.6328 19.257 47.4929 20.4011L20.8976 47.2641C20.8908 47.271 20.877 47.2849 20.8702 47.2918C18.5423 49.6564 18.5423 53.4979 20.8839 55.8555C21.9483 56.9373 23.3628 57.5614 24.8667 57.6238C24.9285 57.6307 24.9903 57.6307 25.0521 57.6307H26.1096V77.407C26.1096 81.3178 29.2615 84.5076 33.1412 84.5076H43.5514C44.6089 84.5076 45.4603 83.6408 45.4603 82.5799V67.0681C45.4603 65.2791 46.9024 63.8298 48.6672 63.8298H54.8061C56.5778 63.8298 58.013 65.2791 58.013 67.0681V82.5729C58.013 83.6408 58.8713 84.5006 59.9219 84.5006H70.3321C74.2119 84.5006 77.3637 81.3178 77.3637 77.4V57.6307H78.3457C79.9525 57.6307 81.4564 56.9997 82.5963 55.8555C84.9447 53.491 84.9447 49.6425 82.61 47.278ZM79.9045 53.1235C79.4925 53.5395 78.9431 53.7684 78.3594 53.7684H75.4616C74.4041 53.7684 73.5526 54.6351 73.5526 55.6961V77.4C73.5526 79.1821 72.1175 80.6383 70.3458 80.6383H61.8447V67.0681C61.8447 63.1572 58.6928 59.9675 54.813 59.9675H48.674C44.7943 59.9675 41.6424 63.1503 41.6424 67.0681V80.6452H33.1412C31.3764 80.6452 29.9344 79.196 29.9344 77.407V55.703C29.9344 54.6351 29.076 53.7753 28.0254 53.7753H25.1757C25.1482 53.7753 25.1139 53.7684 25.0864 53.7684C24.5165 53.7614 23.9808 53.5326 23.5826 53.1235C22.7311 52.2636 22.7311 50.8629 23.5826 50.0031L50.1985 23.1332C50.6105 22.7171 51.1598 22.4883 51.7435 22.4883C52.3272 22.4883 52.8765 22.7171 53.2886 23.1332L79.8976 50.0031C79.9045 50.01 79.9045 50.01 79.9113 50.017C80.7491 50.8699 80.7491 52.2706 79.9045 53.1235Z" fill="#B3C41D"/>
</svg>
